<svg width="15" height="15" fill="none" xmlns="http://www.w3.org/2000/svg"><path d="M14.6 11.6l-3-2a.9.9 0 00-1.2.1L9.5 11c-.1.1-.3.2-.5 0h-.2c-.5-.3-1.2-.7-2.6-2-1.4-1.5-1.8-2.2-2-2.7L4 6l.1-.5 1.2-.9c.3-.3.4-.8.2-1.2l-2-3A.9.9 0 002.1 0L1 1c-.4.2-.7.6-.8 1-.5 1.7-.2 4.6 4 8.8 3.4 3.4 6 4.3 7.7 4.3.4 0 .8 0 1.2-.2.4 0 .8-.4 1-.8l.8-1.2c.2-.4.1-1-.3-1.2zm-.2.9l-.7 1.3c-.2.3-.5.5-.8.6-1.5.4-4.2 0-8.3-4C.6 6.4.2 3.6.6 2c.1-.3.3-.6.6-.8L2.5.6H3l1.1 1.7 1 1.4-.1.5-1.2 1c-.3.2-.4.7-.2 1v.2c.4.6.8 1.3 2.2 2.8C7.3 10.6 8 11 8.6 11.3l.2.1c.3.2.8.1 1-.2l1-1.2h.5l3 2c.2.1.2.3.1.5zM8.5 2.5c2.3 0 4.2 1.9 4.2 4.3a.2.2 0 10.5 0c0-2.7-2-4.8-4.7-4.8a.2.2 0 100 .5z" fill="#999"/><path d="M8.5 4c1.5 0 2.7 1.2 2.7 2.8a.2.2 0 10.5 0c0-1.8-1.4-3.3-3.2-3.3a.2.2 0 100 .5z" fill="#999"/><path d="M8.5 5.5c.7 0 1.2.6 1.2 1.3a.2.2 0 10.5 0c0-1-.7-1.8-1.7-1.8a.2.2 0 100 .5z" fill="#999"/></svg>